<svg id="visual" viewBox="0 0 900 600" width="900" height="600" xmlns="http://www.w3.org/2000/svg" xmlns:xlink="http://www.w3.org/1999/xlink" version="1.1"><rect x="0" y="0" width="900" height="600" fill="#0e0b16"></rect><path d="M0 207L100 207L100 154L200 154L200 181L300 181L300 152L400 152L400 202L500 202L500 137L600 137L600 103L700 103L700 116L800 116L800 180L900 180L900 205L900 601L900 601L800 601L800 601L700 601L700 601L600 601L600 601L500 601L500 601L400 601L400 601L300 601L300 601L200 601L200 601L100 601L100 601L0 601Z" fill="#35185a"></path><path d="M0 252L100 252L100 286L200 286L200 269L300 269L300 207L400 207L400 322L500 322L500 298L600 298L600 291L700 291L700 290L800 290L800 200L900 200L900 218L900 601L900 601L800 601L800 601L700 601L700 601L600 601L600 601L500 601L500 601L400 601L400 601L300 601L300 601L200 601L200 601L100 601L100 601L0 601Z" fill="#251743"></path><path d="M0 398L100 398L100 351L200 351L200 355L300 355L300 328L400 328L400 381L500 381L500 405L600 405L600 342L700 342L700 326L800 326L800 333L900 333L900 356L900 601L900 601L800 601L800 601L700 601L700 601L600 601L600 601L500 601L500 601L400 601L400 601L300 601L300 601L200 601L200 601L100 601L100 601L0 601Z" fill="#19132d"></path><path d="M0 520L100 520L100 511L200 511L200 466L300 466L300 479L400 479L400 439L500 439L500 483L600 483L600 504L700 504L700 494L800 494L800 466L900 466L900 532L900 601L900 601L800 601L800 601L700 601L700 601L600 601L600 601L500 601L500 601L400 601L400 601L300 601L300 601L200 601L200 601L100 601L100 601L0 601Z" fill="#0e0b16"></path></svg>