<svg xmlns="http://www.w3.org/2000/svg" version="1.1" xmlns:xlink="http://www.w3.org/1999/xlink" xmlns:svgjs="http://svgjs.dev/svgjs" width="2000" height="398" viewBox="0 0 2000 398"><g transform="matrix(1,0,0,1,-1.2121212121212466,-0.9856947922529571)"><svg viewBox="0 0 396 79" data-background-color="#ffffff" preserveAspectRatio="xMidYMid meet" height="398" width="2000" xmlns="http://www.w3.org/2000/svg" xmlns:xlink="http://www.w3.org/1999/xlink"><g id="tight-bounds" transform="matrix(1,0,0,1,0.2400000000000091,0.19565298640196715)"><svg viewBox="0 0 395.52 78.60869402719608" height="78.60869402719608" width="395.52"><g><svg viewBox="0 0 515.4686133591377 102.44820617964074" height="78.60869402719608" width="395.52"><g transform="matrix(1,0,0,1,0,14.158905485029948)"><svg viewBox="0 0 395.52 74.13039520958084" height="74.13039520958084" width="395.52"><g id="textblocktransform"><svg viewBox="0 0 395.52 74.13039520958084" height="74.13039520958084" width="395.52" id="textblock"><g><svg viewBox="0 0 395.52 74.13039520958084" height="74.13039520958084" width="395.52"><g transform="matrix(1,0,0,1,0,0)"><svg width="395.52" viewBox="0.95 -35.05 250.48000000000002 46.949999999999996" height="74.13039520958084" data-palette-color="#35185a"><path d="M0.95 0L12.65-34.1 17.85-34.1 29.55 0 25.2 0 22.2-9.1 8.35-9.1 5.3 0 0.95 0ZM9.65-13.1L20.85-13.1 15.35-30.1 15.2-30.1 9.65-13.1ZM34.15 0L34.15-20.6Q34.15-22.3 33.85-24.7L33.85-24.7 37.6-25.2 38.15-22.05Q39.5-23.05 40.8-23.8 42.1-24.55 43.6-25.1 45.1-25.65 46.65-25.65L46.65-25.65Q49.15-25.65 50.6-24.78 52.05-23.9 52.75-21.8L52.75-21.8Q54.8-23.25 57.02-24.45 59.25-25.65 61.65-25.65L61.65-25.65Q63.5-25.65 64.8-25.18 66.1-24.7 66.9-23.6 67.7-22.5 68.05-20.7 68.4-18.9 68.4-16.2L68.4-16.2 68.4 0 64.4 0 64.4-15.75Q64.4-17.25 64.35-18.43 64.3-19.6 64-20.43 63.7-21.25 63.02-21.7 62.35-22.15 61.1-22.15L61.1-22.15Q59.95-22.15 58.92-21.83 57.9-21.5 56.8-20.9 55.7-20.3 53.4-18.45L53.4-18.45 53.4 0 49.4 0 49.4-15.75Q49.4-17.25 49.35-18.43 49.3-19.6 49-20.43 48.7-21.25 48.02-21.7 47.35-22.15 46.1-22.15L46.1-22.15Q44.8-22.15 43.4-21.6 42-21.05 40.75-20.3 39.5-19.55 38.15-18.55L38.15-18.55 38.15 0 34.15 0ZM89.44-5.85L89.44-11.55Q88.44-11.5 87.55-11.45 86.64-11.4 85.77-11.33 84.89-11.25 84.19-11.15L84.19-11.15Q80.59-10.7 79.09-9.58 77.59-8.45 77.59-6.35L77.59-6.35Q77.59-4.6 78.67-3.73 79.75-2.85 81.5-2.85L81.5-2.85Q83.89-2.85 85.77-3.68 87.64-4.5 89.44-5.85L89.44-5.85ZM89.89 0.4L89.39-2.35Q87.05-1 85.02-0.18 83 0.65 80.64 0.65L80.64 0.65Q77.3 0.65 75.32-0.98 73.34-2.6 73.34-6.35L73.34-6.35Q73.34-8.3 74.34-9.75 75.34-11.2 76.97-12.18 78.59-13.15 80.64-13.7 82.69-14.25 84.84-14.4L84.84-14.4Q85.75-14.5 87.19-14.58 88.64-14.65 89.44-14.7L89.44-14.7Q89.44-16.45 89.34-17.82 89.25-19.2 88.75-20.18 88.25-21.15 87.27-21.65 86.3-22.15 84.5-22.15L84.5-22.15Q83.05-22.15 81.69-21.98 80.34-21.8 79.3-21.6L79.3-21.6Q78.05-21.35 77-21.05L77-21.05 76.19-24.5Q77.44-24.8 78.89-25.05L78.89-25.05Q80.14-25.3 81.8-25.48 83.44-25.65 85.34-25.65L85.34-25.65Q87.89-25.65 89.47-24.9 91.05-24.15 91.92-22.88 92.8-21.6 93.12-19.98 93.44-18.35 93.44-16.55L93.44-16.55 93.44-4.55Q93.44-3.85 93.47-3.08 93.5-2.3 93.57-1.55 93.64-0.8 93.75 0L93.75 0 89.89 0.4ZM100.54 0L100.54-20.15Q100.59-21.2 100.29-24.7L100.29-24.7 103.99-25.2 104.54-22Q106.04-23 107.52-23.75 108.99-24.5 110.54-25.08 112.09-25.65 113.54-25.65L113.54-25.65Q115.59-25.65 116.97-25.18 118.34-24.7 119.19-23.6 120.04-22.5 120.42-20.7 120.79-18.9 120.79-16.2L120.79-16.2 120.79 0 116.79 0 116.79-15.75Q116.79-17.25 116.74-18.43 116.69-19.6 116.32-20.43 115.94-21.25 115.17-21.7 114.39-22.15 112.99-22.15L112.99-22.15Q111.69-22.15 110.24-21.58 108.79-21 107.39-20.25 105.99-19.5 104.54-18.5L104.54-18.5 104.54 0 100.54 0ZM158.24-33.45L157.54-29.4Q156.34-29.7 155.04-29.95L155.04-29.95Q153.89-30.2 152.41-30.38 150.94-30.55 149.34-30.55L149.34-30.55Q145.64-30.55 144.04-29.43 142.44-28.3 142.44-25.95L142.44-25.95Q142.49-24.1 143.79-22.83 145.09-21.55 147.04-20.48 148.99-19.4 151.31-18.38 153.64-17.35 155.59-16.03 157.54-14.7 158.86-12.93 160.19-11.15 160.19-8.6L160.19-8.6Q160.19-5.65 158.91-3.85 157.64-2.05 155.69-1.05 153.74-0.05 151.41 0.3 149.09 0.65 146.99 0.65L146.99 0.65Q144.99 0.65 143.34 0.4 141.69 0.15 140.49-0.15L140.49-0.15Q139.09-0.5 137.94-0.95L137.94-0.95 138.94-5Q140.09-4.5 141.39-4.15L141.39-4.15Q142.54-3.85 143.96-3.6 145.39-3.35 146.99-3.35L146.99-3.35Q148.94-3.35 150.56-3.6 152.19-3.85 153.39-4.4 154.59-4.95 155.26-5.85 155.94-6.75 155.94-8.05L155.94-8.05Q155.89-10 154.66-11.23 153.44-12.45 151.41-13.58 149.39-14.7 147.06-15.75 144.74-16.8 142.79-18.15 140.84-19.5 139.51-21.35 138.19-23.2 138.19-25.95L138.19-25.95Q138.19-27.55 138.74-29.1 139.29-30.65 140.61-31.85 141.94-33.05 144.06-33.8 146.19-34.55 149.34-34.55L149.34-34.55Q151.14-34.55 152.76-34.38 154.39-34.2 155.59-34L155.59-34Q156.99-33.75 158.24-33.45L158.24-33.45ZM179.59-5.85L179.59-11.55Q178.59-11.5 177.69-11.45 176.79-11.4 175.91-11.33 175.04-11.25 174.34-11.15L174.34-11.15Q170.74-10.7 169.24-9.58 167.74-8.45 167.74-6.35L167.74-6.35Q167.74-4.6 168.81-3.73 169.89-2.85 171.64-2.85L171.64-2.85Q174.04-2.85 175.91-3.68 177.79-4.5 179.59-5.85L179.59-5.85ZM180.04 0.4L179.54-2.35Q177.19-1 175.16-0.18 173.14 0.65 170.79 0.65L170.79 0.65Q167.44 0.65 165.46-0.98 163.49-2.6 163.49-6.35L163.49-6.35Q163.49-8.3 164.49-9.75 165.49-11.2 167.11-12.18 168.74-13.15 170.79-13.7 172.84-14.25 174.99-14.4L174.99-14.4Q175.89-14.5 177.34-14.58 178.79-14.65 179.59-14.7L179.59-14.7Q179.59-16.45 179.49-17.82 179.39-19.2 178.89-20.18 178.39-21.15 177.41-21.65 176.44-22.15 174.64-22.15L174.64-22.15Q173.19-22.15 171.84-21.98 170.49-21.8 169.44-21.6L169.44-21.6Q168.19-21.35 167.14-21.05L167.14-21.05 166.34-24.5Q167.59-24.8 169.04-25.05L169.04-25.05Q170.29-25.3 171.94-25.48 173.59-25.65 175.49-25.65L175.49-25.65Q178.04-25.65 179.61-24.9 181.19-24.15 182.06-22.88 182.94-21.6 183.26-19.98 183.59-18.35 183.59-16.55L183.59-16.55 183.59-4.55Q183.59-3.85 183.61-3.08 183.64-2.3 183.71-1.55 183.79-0.8 183.89 0L183.89 0 180.04 0.4ZM190.68 0L190.68-20.15Q190.73-21.2 190.43-24.7L190.43-24.7 194.13-25.2 194.68-22Q196.18-23 197.66-23.75 199.13-24.5 200.68-25.08 202.23-25.65 203.68-25.65L203.68-25.65Q205.73-25.65 207.11-25.18 208.48-24.7 209.33-23.6 210.18-22.5 210.56-20.7 210.93-18.9 210.93-16.2L210.93-16.2 210.93 0 206.93 0 206.93-15.75Q206.93-17.25 206.88-18.43 206.83-19.6 206.46-20.43 206.08-21.25 205.31-21.7 204.53-22.15 203.13-22.15L203.13-22.15Q201.83-22.15 200.38-21.58 198.93-21 197.53-20.25 196.13-19.5 194.68-18.5L194.68-18.5 194.68 0 190.68 0ZM220.83-12.45L220.83-12.45Q220.83-7.6 223.01-5.23 225.18-2.85 228.88-2.85L228.88-2.85Q232.53-2.85 234.58-5.2 236.63-7.55 236.63-12.25L236.63-12.25Q236.63-17.25 234.46-19.7 232.28-22.15 228.53-22.15L228.53-22.15Q224.78-22.15 222.81-19.73 220.83-17.3 220.83-12.45ZM216.58-12.5L216.58-12.5Q216.58-16.3 217.78-18.82 218.98-21.35 220.83-22.88 222.68-24.4 224.81-25.03 226.93-25.65 228.83-25.65L228.83-25.65Q230.63-25.65 232.76-25.08 234.88-24.5 236.68-23.03 238.48-21.55 239.68-19.07 240.88-16.6 240.88-12.8L240.88-12.8Q240.88-8.85 239.66-6.25 238.43-3.65 236.58-2.13 234.73-0.6 232.58 0.03 230.43 0.65 228.58 0.65L228.58 0.65Q226.68 0.65 224.58 0.05 222.48-0.55 220.71-2.02 218.93-3.5 217.76-6.05 216.58-8.6 216.58-12.5ZM246.68-25.1L250.68-25.7 250.68-0.45Q250.68 4.05 249.03 6.98 247.38 9.9 243.88 11.9L243.88 11.9 241.83 8.35Q243.33 7.45 244.28 6.38 245.23 5.3 245.75 4.08 246.28 2.85 246.48 1.58 246.68 0.3 246.68-1L246.68-1 246.68-25.1ZM245.88-32.35L245.88-32.35Q245.88-33.5 246.65-34.27 247.43-35.05 248.58-35.05L248.58-35.05Q249.78-35.05 250.6-34.27 251.43-33.5 251.43-32.35L251.43-32.35Q251.43-31.2 250.6-30.43 249.78-29.65 248.58-29.65L248.58-29.65Q247.43-29.65 246.65-30.43 245.88-31.2 245.88-32.35Z" opacity="1" transform="matrix(1,0,0,1,0,0)" fill="#ffffff" class="wordmark-text-0" data-fill-palette-color="primary" id="text-0"></path></svg></g></svg></g></svg></g></svg></g><g transform="matrix(1,0,0,1,413.020407179497,0)"><svg viewBox="0 0 102.44820617964074 102.44820617964074" height="102.44820617964074" width="102.44820617964074"><g data-palette-color="#35185a"><rect width="28.0025096891018" height="102.44820617964074" fill="#ffffff" stroke="transparent" data-fill-palette-color="accent" x="0" fill-opacity="1"></rect><rect width="28.0025096891018" height="102.44820617964074" fill="#ffffff" stroke="transparent" data-fill-palette-color="accent" x="34.149402059880245" fill-opacity="0.75"></rect><rect width="28.0025096891018" height="102.44820617964074" fill="#ffffff" stroke="transparent" data-fill-palette-color="accent" x="68.29880411976049" fill-opacity="0.5"></rect></g></svg></g></svg></g><defs></defs></svg><rect width="395.52" height="78.60869402719608" fill="none" stroke="none" visibility="hidden"></rect></g></svg></g></svg>